<svg width="203" height="55" viewBox="0 0 203 55" fill="none" xmlns="http://www.w3.org/2000/svg">
<path d="M9.62675 44.5023C6.85475 44.5023 4.88575 43.7323 3.71975 42.1923C2.57575 40.6303 2.00375 38.4303 2.00375 35.5923V26.0553C2.00375 23.1293 2.57575 20.9073 3.71975 19.3893C4.86375 17.8713 6.83275 17.1123 9.62675 17.1123C12.2448 17.1123 14.1038 17.7723 15.2038 19.0923C16.3038 20.4123 16.8538 22.3153 16.8538 24.8013V27.0453H12.1678V24.7353C12.1678 23.7893 12.1238 23.0523 12.0358 22.5243C11.9478 21.9743 11.7168 21.5343 11.3428 21.2043C10.9908 20.8523 10.4298 20.6763 9.65975 20.6763C8.86775 20.6763 8.27375 20.8633 7.87775 21.2373C7.48175 21.5893 7.21775 22.0733 7.08575 22.6893C6.97575 23.2833 6.92075 24.0643 6.92075 25.0323V36.6153C6.92075 38.1333 7.11875 39.2333 7.51475 39.9153C7.91075 40.5753 8.62575 40.9053 9.65975 40.9053C10.4078 40.9053 10.9578 40.7293 11.3098 40.3773C11.6838 40.0253 11.9148 39.5633 12.0028 38.9913C12.1128 38.3973 12.1678 37.6163 12.1678 36.6483V34.2393H16.8538V36.3843C16.8538 38.9583 16.3148 40.9603 15.2368 42.3903C14.1588 43.7983 12.2888 44.5023 9.62675 44.5023ZM26.227 17.4093H31.441L36.787 44.1393H32.266L31.21 37.9683H26.557L25.468 44.1393H20.881L26.227 17.4093ZM30.682 34.8663L28.867 23.6463L27.052 34.8663H30.682ZM48.0583 44.5023C45.6383 44.5023 43.8233 43.8203 42.6133 42.4563C41.4253 41.0923 40.7763 39.0573 40.6663 36.3513L44.8573 35.5263C44.9233 37.2203 45.1873 38.5183 45.6493 39.4203C46.1333 40.3003 46.8813 40.7403 47.8933 40.7403C48.6413 40.7403 49.1913 40.5203 49.5433 40.0803C49.9173 39.6183 50.1043 39.0023 50.1043 38.2323C50.1043 37.1763 49.8623 36.2853 49.3783 35.5593C48.9163 34.8113 48.1793 33.9973 47.1673 33.1173L43.8013 30.1803C42.7673 29.3003 41.9863 28.3543 41.4583 27.3423C40.9523 26.3303 40.6993 25.1203 40.6993 23.7123C40.6993 21.6223 41.3043 20.0053 42.5143 18.8613C43.7463 17.6953 45.4403 17.1123 47.5963 17.1123C49.9063 17.1123 51.5563 17.7723 52.5463 19.0923C53.5583 20.3903 54.1413 22.1503 54.2953 24.3723L50.1043 25.0983C50.0383 23.6463 49.8293 22.5573 49.4773 21.8313C49.1473 21.0833 48.4873 20.7093 47.4973 20.7093C46.7933 20.7093 46.2433 20.9513 45.8473 21.4353C45.4513 21.8973 45.2533 22.4913 45.2533 23.2173C45.2533 24.0753 45.4183 24.8013 45.7483 25.3953C46.1003 25.9673 46.6613 26.5833 47.4313 27.2433L50.7643 30.1803C52.0183 31.2583 52.9973 32.4133 53.7013 33.6453C54.4053 34.8773 54.7573 36.3073 54.7573 37.9353C54.7573 39.2113 54.4713 40.3443 53.8993 41.3343C53.3493 42.3243 52.5683 43.1053 51.5563 43.6773C50.5443 44.2273 49.3783 44.5023 48.0583 44.5023ZM59.613 17.4093H70.833V20.8413H64.464V28.5303H69.48V31.9293H64.464V40.8063H70.899V44.1393H59.613V17.4093ZM92.4446 44.5023C90.0246 44.5023 88.2096 43.8203 86.9996 42.4563C85.8116 41.0923 85.1626 39.0573 85.0526 36.3513L89.2436 35.5263C89.3096 37.2203 89.5736 38.5183 90.0356 39.4203C90.5196 40.3003 91.2676 40.7403 92.2796 40.7403C93.0276 40.7403 93.5776 40.5203 93.9296 40.0803C94.3036 39.6183 94.4906 39.0023 94.4906 38.2323C94.4906 37.1763 94.2486 36.2853 93.7646 35.5593C93.3026 34.8113 92.5656 33.9973 91.5536 33.1173L88.1876 30.1803C87.1536 29.3003 86.3726 28.3543 85.8446 27.3423C85.3386 26.3303 85.0856 25.1203 85.0856 23.7123C85.0856 21.6223 85.6906 20.0053 86.9006 18.8613C88.1326 17.6953 89.8266 17.1123 91.9826 17.1123C94.2926 17.1123 95.9426 17.7723 96.9326 19.0923C97.9446 20.3903 98.5276 22.1503 98.6816 24.3723L94.4906 25.0983C94.4246 23.6463 94.2156 22.5573 93.8636 21.8313C93.5336 21.0833 92.8736 20.7093 91.8836 20.7093C91.1796 20.7093 90.6296 20.9513 90.2336 21.4353C89.8376 21.8973 89.6396 22.4913 89.6396 23.2173C89.6396 24.0753 89.8046 24.8013 90.1346 25.3953C90.4866 25.9673 91.0476 26.5833 91.8176 27.2433L95.1506 30.1803C96.4046 31.2583 97.3836 32.4133 98.0876 33.6453C98.7916 34.8773 99.1436 36.3073 99.1436 37.9353C99.1436 39.2113 98.8576 40.3443 98.2856 41.3343C97.7356 42.3243 96.9546 43.1053 95.9426 43.6773C94.9306 44.2273 93.7646 44.5023 92.4446 44.5023ZM106.672 21.0063H102.415V17.4093H115.714V21.0063H111.556V44.1393H106.672V21.0063ZM127.453 44.5023C125.517 44.5023 123.999 44.1503 122.899 43.4463C121.799 42.7423 121.029 41.7413 120.589 40.4433C120.149 39.1453 119.929 37.4953 119.929 35.4933V17.4093H124.681V36.0543C124.681 37.5943 124.857 38.7823 125.209 39.6183C125.583 40.4543 126.331 40.8723 127.453 40.8723C128.597 40.8723 129.345 40.4543 129.697 39.6183C130.071 38.7823 130.258 37.5943 130.258 36.0543V17.4093H134.977V35.4933C134.977 37.4733 134.757 39.1233 134.317 40.4433C133.877 41.7413 133.107 42.7423 132.007 43.4463C130.907 44.1503 129.389 44.5023 127.453 44.5023ZM140.798 17.4093H147.101C149.257 17.4093 150.951 17.7063 152.183 18.3003C153.415 18.8723 154.284 19.7633 154.79 20.9733C155.318 22.1613 155.582 23.7453 155.582 25.7253V35.4603C155.582 37.4843 155.318 39.1233 154.79 40.3773C154.284 41.6313 153.426 42.5773 152.216 43.2153C151.006 43.8313 149.367 44.1393 147.299 44.1393H140.798V17.4093ZM147.167 40.7403C148.245 40.7403 149.026 40.5533 149.51 40.1793C149.994 39.8053 150.302 39.2883 150.434 38.6283C150.566 37.9463 150.632 36.9453 150.632 35.6253V25.3953C150.632 24.2073 150.555 23.3053 150.401 22.6893C150.247 22.0733 149.917 21.6223 149.411 21.3363C148.927 21.0283 148.157 20.8743 147.101 20.8743H145.649V40.7403H147.167ZM164.618 33.9423L159.206 17.4093H163.76L167.06 28.0023L170.162 17.4093H174.617L169.271 33.9423V44.1393H164.618V33.9423ZM179.083 24.9663C179.809 24.9443 180.304 24.6693 180.568 24.1413C180.832 23.6133 180.964 22.7883 180.964 21.6663H178.951V17.4093H183.241V20.8413C183.197 22.7553 182.9 24.1743 182.35 25.0983C181.822 26.0003 180.898 26.4623 179.578 26.4843L179.083 24.9663ZM194.849 44.5023C192.429 44.5023 190.614 43.8203 189.404 42.4563C188.216 41.0923 187.567 39.0573 187.457 36.3513L191.648 35.5263C191.714 37.2203 191.978 38.5183 192.44 39.4203C192.924 40.3003 193.672 40.7403 194.684 40.7403C195.432 40.7403 195.982 40.5203 196.334 40.0803C196.708 39.6183 196.895 39.0023 196.895 38.2323C196.895 37.1763 196.653 36.2853 196.169 35.5593C195.707 34.8113 194.97 33.9973 193.958 33.1173L190.592 30.1803C189.558 29.3003 188.777 28.3543 188.249 27.3423C187.743 26.3303 187.49 25.1203 187.49 23.7123C187.49 21.6223 188.095 20.0053 189.305 18.8613C190.537 17.6953 192.231 17.1123 194.387 17.1123C196.697 17.1123 198.347 17.7723 199.337 19.0923C200.349 20.3903 200.932 22.1503 201.086 24.3723L196.895 25.0983C196.829 23.6463 196.62 22.5573 196.268 21.8313C195.938 21.0833 195.278 20.7093 194.288 20.7093C193.584 20.7093 193.034 20.9513 192.638 21.4353C192.242 21.8973 192.044 22.4913 192.044 23.2173C192.044 24.0753 192.209 24.8013 192.539 25.3953C192.891 25.9673 193.452 26.5833 194.222 27.2433L197.555 30.1803C198.809 31.2583 199.788 32.4133 200.492 33.6453C201.196 34.8773 201.548 36.3073 201.548 37.9353C201.548 39.2113 201.262 40.3443 200.69 41.3343C200.14 42.3243 199.359 43.1053 198.347 43.6773C197.335 44.2273 196.169 44.5023 194.849 44.5023Z" fill="black"/>
<rect x="4.67413" y="0.0765076" width="25.0934" height="6.12553" rx="3.06277" fill="#3C3B3B"/>
</svg>
